<svg width="113" height="36" viewBox="0 0 113 36" fill="none" xmlns="http://www.w3.org/2000/svg">
<g clip-path="url(#clip0)">
<path d="M23.2298 32.9243C23.2298 30.8138 24.2344 29.8332 26.193 29.8332C26.6448 29.8332 27.1285 29.8821 27.5883 29.9824V30.2038C27.2215 30.1369 26.8122 30.088 26.4136 30.088C24.4816 30.088 23.9288 30.8961 23.9288 32.9089C23.9288 34.9216 24.4816 35.7452 26.4136 35.7452C26.8388 35.7452 27.2056 35.6886 27.5883 35.6294V35.8507C27.1019 35.9486 26.6687 36 26.193 36C24.2344 36 23.2298 35.0271 23.2298 32.9243Z" fill="white"/>
<path d="M29.7621 32.9063C29.7621 30.8781 30.8092 29.7971 32.4782 29.7971C34.1392 29.7971 35.1863 30.8781 35.1863 32.9063C35.1863 34.9345 34.1392 35.9975 32.4782 35.9975C30.8092 36 29.7621 34.9345 29.7621 32.9063ZM34.4873 32.8909C34.4873 30.9193 33.8575 30.0468 32.4782 30.0468C31.0989 30.0468 30.4611 30.9373 30.4611 32.8909C30.4611 34.8521 31.0989 35.7529 32.4782 35.7529C33.8548 35.7504 34.4873 34.8521 34.4873 32.8909Z" fill="white"/>
<path d="M37.6445 35.8507V35.6294C38.1468 35.686 38.7421 35.7452 39.4251 35.7452C40.7114 35.7452 41.4767 35.3566 41.4767 34.4506C41.4767 34.0465 41.3571 33.7994 41.102 33.6167C40.8283 33.4108 40.3951 33.2872 39.7227 33.0968C39.1009 32.9166 38.5986 32.7493 38.2584 32.5202C37.9182 32.2731 37.7402 31.9437 37.7402 31.4161C37.7402 30.2115 38.7368 29.8332 40.0815 29.8332C40.4562 29.8332 41.0781 29.8821 41.6388 29.9824V30.2038C41.1791 30.1472 40.6343 30.088 40.14 30.088C39.0424 30.088 38.3435 30.3943 38.3435 31.2513C38.3435 31.622 38.4551 31.8613 38.6916 32.0338C38.9653 32.2242 39.4065 32.3709 40.0629 32.546C40.6927 32.7261 41.1525 32.8754 41.4927 33.1071C41.8754 33.3722 42.08 33.7248 42.08 34.3039C42.08 35.5316 40.8788 36.0026 39.4995 36.0026C38.9148 36 38.2584 35.9486 37.6445 35.8507Z" fill="white"/>
<path d="M45.0512 30.6645V36H44.7775V29.9155H45.4232L47.738 35.408L50.0527 29.9155H50.6906V36H50.0527V30.6233L47.7885 36H47.3021L45.0512 30.6645Z" fill="white"/>
<path d="M59.9017 29.9129H64.882V30.16H62.7107V35.9974H62.0649V30.16H59.9017V29.9129V29.9129Z" fill="white"/>
<path d="M67.4093 29.9129H68.0551V35.9974H67.4093V29.9129V29.9129Z" fill="white"/>
<path d="M70.9173 32.9243C70.9173 30.8138 71.9219 29.8332 73.8805 29.8332C74.3323 29.8332 74.816 29.8821 75.2757 29.9824V30.2038C74.909 30.1369 74.4997 30.088 74.1011 30.088C72.169 30.088 71.6163 30.8961 71.6163 32.9089C71.6163 34.9216 72.169 35.7452 74.1011 35.7452C74.5263 35.7452 74.8931 35.6886 75.2757 35.6294V35.8507C74.7894 35.9486 74.3562 36 73.8805 36C71.9219 36 70.9173 35.0271 70.9173 32.9243Z" fill="white"/>
<path d="M77.4496 32.9063C77.4496 30.8781 78.4967 29.7971 80.1657 29.7971C81.8267 29.7971 82.8737 30.8781 82.8737 32.9063C82.8737 34.9345 81.8267 35.9975 80.1657 35.9975C78.4967 36 77.4496 34.9345 77.4496 32.9063ZM82.1748 32.8909C82.1748 30.9193 81.545 30.0468 80.1657 30.0468C78.7864 30.0468 78.1486 30.9373 78.1486 32.8909C78.1486 34.8521 78.7864 35.7529 80.1657 35.7529C81.545 35.7504 82.1748 34.8521 82.1748 32.8909Z" fill="white"/>
<path d="M85.332 35.8507V35.6294C85.8343 35.686 86.4296 35.7452 87.1126 35.7452C88.3988 35.7452 89.1642 35.3566 89.1642 34.4506C89.1642 34.0465 89.0446 33.7994 88.7895 33.6167C88.5158 33.4108 88.0826 33.2872 87.4102 33.0968C86.7884 32.9166 86.2861 32.7493 85.9459 32.5202C85.6057 32.2731 85.4277 31.9437 85.4277 31.4161C85.4277 30.2115 86.4243 29.8332 87.769 29.8332C88.1437 29.8332 88.7656 29.8821 89.3263 29.9824V30.2038C88.8666 30.1472 88.3218 30.088 87.8275 30.088C86.7299 30.088 86.0309 30.3943 86.0309 31.2513C86.0309 31.622 86.1426 31.8613 86.3791 32.0338C86.6528 32.2242 87.094 32.3709 87.7504 32.546C88.3802 32.7261 88.84 32.8754 89.1802 33.1071C89.5629 33.3722 89.7675 33.7248 89.7675 34.3039C89.7675 35.5316 88.5663 36.0026 87.187 36.0026C86.6023 36 85.9459 35.9486 85.332 35.8507Z" fill="white"/>
<path d="M53.7202 29.9129H57.6879V30.16H54.3686V32.7493H57.4169V32.9964H54.3686V35.7504H57.765V35.9975H53.7202V29.9129ZM56.0349 28.1576H56.7073L55.7798 29.5758H55.5831L56.0349 28.1576Z" fill="white"/>
<path d="M98.4152 13.7185C98.3302 13.7185 98.2611 13.7854 98.2611 13.8678V14.7583C98.2611 14.8407 98.3302 14.9076 98.4152 14.9076H111.615C111.7 14.9076 111.77 14.8407 111.77 14.7583V13.8678C111.77 13.7854 111.7 13.7185 111.615 13.7185H98.4152Z" fill="white"/>
<path d="M113 5.83487V4.94433C113 4.86196 112.931 4.79504 112.846 4.79504H102.936C97.0333 4.79504 93.3499 9.9504 93.3499 14.3105C93.3499 18.6705 97.0359 23.8259 102.936 23.8259H112.846C112.931 23.8259 113 23.7589 113 23.6766V22.786C113 22.7037 112.931 22.6368 112.846 22.6368H103.611C98.8909 22.6368 97.0333 17.8006 97.0333 14.3105C97.0333 10.8204 98.8883 5.98415 103.611 5.98415H112.846C112.931 5.98672 113 5.9198 113 5.83487Z" fill="white"/>
<path d="M90.6445 4.79504H89.2121C89.1509 4.79504 89.0925 4.83108 89.0712 4.8877C86.217 11.5848 82.0233 16.0246 76.578 18.1043C66.8619 21.8131 56.0748 16.8045 54.6051 16.0812C54.5281 16.0426 54.4377 16.0735 54.3978 16.1482L53.7946 17.2961C53.7547 17.3707 53.7866 17.4582 53.861 17.4968C55.1048 18.1197 61.3713 21.0667 68.7355 21.0667C71.4621 21.0667 74.3403 20.6626 77.1679 19.5842C83.182 17.2909 87.7584 12.393 90.7907 5.00352C90.8279 4.90572 90.7534 4.79504 90.6445 4.79504Z" fill="white"/>
<path d="M102.949 30.9888C101.533 31.084 93.5492 30.8652 82.1748 15.7029C70.0084 -0.514762 60.1887 -0.0823606 59.0646 0.0257398C59.0459 0.0283136 59.0459 0.0514779 59.0646 0.0540518C60.0904 0.234219 68.4165 2.13112 79.8627 17.6229C91.0883 32.8162 101.339 31.362 102.954 31.0171C102.97 31.0145 102.968 30.9888 102.949 30.9888Z" fill="white"/>
<path d="M10.0669 4.79504H3.68605H0.154139C0.0690969 4.79504 0 4.86196 0 4.9469V23.6791C0 23.7615 0.0690969 23.8284 0.154139 23.8284H3.52926C3.6143 23.8284 3.6834 23.7615 3.6834 23.6791V16.9744V16.6912V15.5021V14.6553V5.98672H9.38921C14.1091 5.98672 15.9667 7.25561 15.9667 10.7457C15.9667 14.2358 14.1117 15.5021 9.38921 15.5021H5.06799C4.98295 15.5021 4.91385 15.569 4.91385 15.6514V16.542C4.91385 16.6243 4.98295 16.6912 5.06799 16.6912H10.0669C15.9694 16.6912 19.6528 15.1058 19.6528 10.7431C19.6528 6.38052 15.9667 4.79504 10.0669 4.79504Z" fill="white"/>
<path d="M36.6718 16.4699C40.5466 15.9011 42.8454 14.1895 42.8454 10.7457C42.8454 6.38308 39.1593 4.79761 33.2595 4.79761H26.8787H23.3494C23.2644 4.79761 23.1953 4.86453 23.1953 4.94689V23.6791C23.1953 23.7615 23.2644 23.8284 23.3494 23.8284H26.7246C26.8096 23.8284 26.8787 23.7615 26.8787 23.6791V16.9743V16.6912V15.5021V14.6553V5.98671H32.5845C37.307 5.98671 39.162 7.2556 39.162 10.7457C39.162 14.2358 37.307 15.5047 32.5845 15.5047H28.2633C28.1782 15.5047 28.1091 15.5716 28.1091 15.654V16.5445C28.1091 16.6269 28.1782 16.6938 28.2633 16.6938H32.1194L38.0618 23.7769C38.091 23.813 38.1362 23.8336 38.1813 23.8336H42.5212C42.6514 23.8336 42.7231 23.6869 42.6408 23.5891L36.6718 16.4699Z" fill="white"/>
<path d="M68.382 23.6097L66.1257 19.3191C64.5073 19.1621 62.9738 18.879 61.5813 18.5418L64.3186 23.7461C64.3452 23.7975 64.3983 23.8284 64.4568 23.8284H68.2438C68.3581 23.8284 68.4325 23.71 68.382 23.6097Z" fill="white"/>
<path d="M58.5251 4.87741C58.4985 4.82593 58.4453 4.79504 58.3869 4.79504H55.4104C55.3519 4.79504 55.2988 4.82593 55.2722 4.87741L45.4179 23.6097C45.3648 23.71 45.4392 23.8284 45.5561 23.8284H46.5872C46.6457 23.8284 46.6989 23.7975 46.7254 23.7461L55.522 7.02654L61.2039 17.8289C62.5965 18.1892 64.1458 18.5032 65.7909 18.6859L58.5251 4.87741Z" fill="white"/>
</g>
<defs>
<clipPath id="clip0">
<rect width="113" height="36" fill="white"/>
</clipPath>
</defs>
</svg>
