<?xml version="1.0" encoding="utf-8"?>
<!-- Generator: Adobe Illustrator 24.0.1, SVG Export Plug-In . SVG Version: 6.00 Build 0)  -->
<svg version="1.1" id="Camada_1" xmlns="http://www.w3.org/2000/svg" xmlns:xlink="http://www.w3.org/1999/xlink" x="0px" y="0px"
	 viewBox="0 0 841.9 595.3" style="enable-background:new 0 0 841.9 595.3;" xml:space="preserve">
<style type="text/css">
	.st0{display:none;fill:#FFFFFF;}
	.st1{clip-path:url(#SVGID_2_);fill:#742E89;}
</style>
<rect x="181" y="209.2" class="st0" width="469.1" height="192.6"/>
<g>
	<defs>
		<rect id="SVGID_1_" width="841.9" height="595.3"/>
	</defs>
	<clipPath id="SVGID_2_">
		<use xlink:href="#SVGID_1_"  style="overflow:visible;"/>
	</clipPath>
	<path class="st1" d="M295.8,355.6c0-8.2,3.8-12,11.1-12c1.7,0,3.5,0.2,5.3,0.6v0.9c-1.4-0.3-2.9-0.4-4.4-0.4c-7.3,0-9.4,3.1-9.4,11
		c0,7.8,2.1,11,9.4,11c1.6,0,3-0.2,4.4-0.4v0.9c-1.8,0.4-3.5,0.6-5.3,0.6C299.5,367.6,295.8,363.8,295.8,355.6"/>
	<path class="st1" d="M320.3,355.6c0-7.9,3.9-12.1,10.2-12.1c6.2,0,10.2,4.2,10.2,12.1c0,7.9-3.9,12-10.2,12
		C324.3,367.6,320.3,363.4,320.3,355.6 M338.1,355.5c0-7.7-2.4-11.1-7.6-11.1c-5.2,0-7.6,3.5-7.6,11.1c0,7.6,2.4,11.1,7.6,11.1
		C335.7,366.6,338.1,363.1,338.1,355.5"/>
	<path class="st1" d="M350,367v-0.9c1.9,0.2,4.1,0.4,6.7,0.4c4.8,0,7.7-1.5,7.7-5c0-1.6-0.4-2.5-1.4-3.2c-1-0.8-2.7-1.3-5.2-2
		c-2.3-0.7-4.2-1.3-5.5-2.2c-1.3-1-2-2.2-2-4.3c0-4.7,3.7-6.2,8.8-6.2c1.4,0,3.7,0.2,5.9,0.6v0.9c-1.7-0.2-3.8-0.4-5.6-0.4
		c-4.1,0-6.8,1.2-6.8,4.5c0,1.4,0.4,2.4,1.3,3c1,0.7,2.7,1.3,5.2,2c2.4,0.7,4.1,1.3,5.4,2.2c1.4,1,2.2,2.4,2.2,4.6
		c0,4.8-4.5,6.6-9.7,6.6C354.8,367.6,352.3,367.4,350,367"/>
	<polygon class="st1" points="377.9,346.8 377.9,367.6 376.8,367.6 376.8,343.9 379.3,343.9 388,365.3 396.7,343.9 399.1,343.9 
		399.1,367.6 396.7,367.6 396.7,346.7 388.2,367.6 386.4,367.6 	"/>
	<polygon class="st1" points="433.7,343.9 452.5,343.9 452.5,344.9 444.3,344.9 444.3,367.6 441.9,367.6 441.9,344.9 433.7,344.9 	
		"/>
	<rect x="462" y="343.9" class="st1" width="2.4" height="23.6"/>
	<path class="st1" d="M475.2,355.6c0-8.2,3.8-12,11.1-12c1.7,0,3.5,0.2,5.3,0.6v0.9c-1.4-0.3-2.9-0.4-4.4-0.4c-7.3,0-9.4,3.1-9.4,11
		c0,7.8,2.1,11,9.4,11c1.6,0,3-0.2,4.4-0.4v0.9c-1.8,0.4-3.5,0.6-5.3,0.6C479,367.6,475.2,363.8,475.2,355.6"/>
	<path class="st1" d="M499.8,355.6c0-7.9,3.9-12.1,10.2-12.1c6.2,0,10.2,4.2,10.2,12.1c0,7.9-3.9,12-10.2,12
		C503.7,367.6,499.8,363.4,499.8,355.6 M517.6,355.5c0-7.7-2.4-11.1-7.6-11.1c-5.2,0-7.6,3.5-7.6,11.1c0,7.6,2.4,11.1,7.6,11.1
		C515.2,366.6,517.6,363.1,517.6,355.5"/>
	<path class="st1" d="M529.4,367v-0.9c1.9,0.2,4.1,0.4,6.7,0.4c4.8,0,7.7-1.5,7.7-5c0-1.6-0.4-2.5-1.4-3.2c-1-0.8-2.7-1.3-5.2-2
		c-2.3-0.7-4.2-1.3-5.5-2.2c-1.3-1-2-2.2-2-4.3c0-4.7,3.7-6.2,8.8-6.2c1.4,0,3.7,0.2,5.9,0.6v0.9c-1.7-0.2-3.8-0.4-5.6-0.4
		c-4.1,0-6.8,1.2-6.8,4.5c0,1.4,0.4,2.4,1.3,3c1,0.7,2.7,1.3,5.2,2c2.4,0.7,4.1,1.3,5.4,2.2c1.4,1,2.2,2.4,2.2,4.6
		c0,4.8-4.5,6.6-9.7,6.6C534.2,367.6,531.7,367.4,529.4,367"/>
	<path class="st1" d="M410.5,343.9h14.9v1h-12.5v10.1h11.5v1h-11.5v10.7h12.8v1h-15.2V343.9z M419.2,337.1h2.5l-3.5,5.5h-0.7
		L419.2,337.1z"/>
	<path class="st1" d="M578.7,281c-0.3,0-0.6,0.3-0.6,0.6v3.5c0,0.3,0.3,0.6,0.6,0.6h49.7c0.3,0,0.6-0.3,0.6-0.6v-3.5
		c0-0.3-0.3-0.6-0.6-0.6H578.7z"/>
	<path class="st1" d="M633.5,250.4v-3.5c0-0.3-0.3-0.6-0.6-0.6h-37.3c-22.2,0-36.1,20-36.1,37c0,16.9,13.9,37,36.1,37H633
		c0.3,0,0.6-0.3,0.6-0.6v-3.5c0-0.3-0.3-0.6-0.6-0.6h-34.8c-17.8,0-24.7-18.8-24.7-32.4s7-32.4,24.7-32.4H633
		C633.3,251,633.5,250.7,633.5,250.4"/>
	<path class="st1" d="M549.4,246.3H544c-0.2,0-0.4,0.1-0.5,0.4c-10.7,26-26.5,43.3-47,51.3c-36.6,14.4-77.2-5.1-82.7-7.9
		c-0.3-0.1-0.6,0-0.8,0.3l-2.3,4.5c-0.1,0.3,0,0.6,0.3,0.8c4.7,2.4,28.3,13.9,56,13.9c10.3,0,21.1-1.6,31.7-5.8
		c22.6-8.9,39.8-27.9,51.3-56.6C550.1,246.8,549.8,246.3,549.4,246.3"/>
	<path class="st1" d="M595.7,348.1c-5.3,0.4-35.4-0.5-78.2-59.4c-45.8-63-82.7-61.3-87-60.9c-0.1,0-0.1,0.1,0,0.1
		c3.9,0.7,35.2,8.1,78.3,68.3c42.2,59,80.8,53.4,86.9,52C595.8,348.2,595.8,348.1,595.7,348.1"/>
	<path class="st1" d="M246.2,246.3h-24h-13.3c-0.3,0-0.6,0.3-0.6,0.6v72.8c0,0.3,0.3,0.6,0.6,0.6h12.7c0.3,0,0.6-0.3,0.6-0.6v-26
		v-1.1v-4.6v-3.3V251h21.5c17.8,0,24.7,4.9,24.7,18.5s-7,18.5-24.7,18.5h-16.3c-0.3,0-0.6,0.3-0.6,0.6v3.5c0,0.3,0.3,0.6,0.6,0.6
		h18.8c22.2,0,36.1-6.2,36.1-23.1C282.3,252.5,268.4,246.3,246.2,246.3"/>
	<path class="st1" d="M346.3,291.7c14.6-2.2,23.2-8.9,23.2-22.2c0-16.9-13.9-23.1-36.1-23.1h-24h-13.3c-0.3,0-0.6,0.3-0.6,0.6v72.8
		c0,0.3,0.3,0.6,0.6,0.6h12.7c0.3,0,0.6-0.3,0.6-0.6v-26v-1.1v-4.6v-3.3V251H331c17.8,0,24.7,4.9,24.7,18.5c0,13.6-7,18.5-24.7,18.5
		h-16.3c-0.3,0-0.6,0.3-0.6,0.6v3.5c0,0.3,0.3,0.6,0.6,0.6h14.5l22.4,27.5c0.1,0.1,0.3,0.2,0.5,0.2h16.3c0.5,0,0.8-0.6,0.5-0.9
		L346.3,291.7z"/>
	<path class="st1" d="M465.7,319.4l-8.5-16.7c-6.1-0.6-11.9-1.7-17.1-3l10.3,20.2c0.1,0.2,0.3,0.3,0.5,0.3h14.3
		C465.6,320.3,465.9,319.8,465.7,319.4"/>
	<path class="st1" d="M428.6,246.7c-0.1-0.2-0.3-0.3-0.5-0.3h-11.2c-0.2,0-0.4,0.1-0.5,0.3l-37.1,72.8c-0.2,0.4,0.1,0.8,0.5,0.8h3.9
		c0.2,0,0.4-0.1,0.5-0.3l33.1-65l21.4,42c5.2,1.4,11.1,2.6,17.3,3.3L428.6,246.7z"/>
</g>
</svg>
